/* XPM */
static char *dummy[]={
"10 10 10 1",
"1 c #FFFFFFFE",
"  c #FF000000",
"a c #FF370617",
"b c #FF6A040F",
"c c #FF9D0208",
"d c #FFD00000",
"e c #FFDC2F02",
"f c #FFE85D04",
"g c #FFF48C06",
"h c #FFFAA307",

"hhhhhhhhhh",
"h    1   h",
"g   11   g",
"f  111   f",
"e 1 11   e",
"d   11   d",
"c   11   c",
"b   11   b",
"a 111111 a",
"aaaaaaaaaa"};
