/* XPM */
static char *_04f4e355b75407292a66d37d4f2b22brvhKkOjxjO7uUYk3[] = {
/* columns rows colors chars-per-pixel */
"128 128 24 1 ",
"  c None",
". c #013B3023",
"X c #01403C37",
"o c #0157452F",
"O c #01424531",
"+ c #0153573E",
"@ c #017D5422",
"# c #01635E57",
"$ c #015A6940",
"% c #018C5A37",
"& c #018C602A",
"* c #019E6B24",
"= c #01966D3B",
"- c #0180786E",
"; c #01758756",
": c #01F08000",
"> c #01CFA725",
", c #01B88548",
"< c #01A6B07D",
"1 c #01D4A46A",
"2 c #01FFD86B",
"3 c #01A89A88",
"4 c #01BFBCB8",
"5 c white",
/* pixels */
"                                                                                                                                ",
"                                                                                                                                ",
"                                                                                                                                ",
"                                                                                                                                ",
"                                                                                                                                ",
"                                                                                                                                ",
"                                                                                                                                ",
"                                                                                                                                ",
"                                                                                                                                ",
"                                                                                                                                ",
"                                                                                                                                ",
"                                                                                                                                ",
"                                                                                                                                ",
"                                                                                                                                ",
"                                                                                                                                ",
"                                                                                                                                ",
"                                                                                                                                ",
"                                                                                                                                ",
"                                                                                                                                ",
"                                                                                                                                ",
"                                                                                                                                ",
"                                                                                                                                ",
"                                                                                                                                ",
"                                                                                                                                ",
"                                                                                                                                ",
"                                                                                                                                ",
"                                                                                                                                ",
"                                                                                                                                ",
"                                                                                                                                ",
"                                                                                                                                ",
"                                                                                                                                ",
"                                                                                                                                ",
"                                                                                                                                ",
"                                                                                                                                ",
"                                                                                                                                ",
"                                                                                                                                ",
"                                                                                                                                ",
"                                                                                                                                ",
"                                                                                                                                ",
"                                                                                                                                ",
"                                                                                                                                ",
"                                                                                                                                ",
"                                                                                                                                ",
"                                                                                                                                ",
"                                                                                                                                ",
"                                                                                                                                ",
"                                                                                                                                ",
"                                                                                                                                ",
"                                                                                                                                ",
"                                                                                                                                ",
"                                                                                                                                ",
"                                                                                                                                ",
"                                               5555555555                                                                       ",
"                                             555555555555555                                                                    ",
"                                           5555555555 2555555                                                                   ",
"                                           55555555555 5 55 555                                                                 ",
"                                          555555555555555255 555                                                                ",
"                                         555555555525 5552 55555                                                                ",
"                                         5552 5555555255525555555                                                               ",
"                                        5552225555555255555555555                                                               ",
"                                        255222225555255X##55 555                                                                ",
"                                      5 252222555555255X###55                                                                   ",
"                                        2 522225555XXXX5####XXX 5                                                               ",
"                                        525  555555X55553333344#                                                                ",
"                                        552 5525555X333333333344##                                                              ",
"                                         5225522555X#3X333333333444                                                             ",
"                                         5555555555X533XX33333333343#                                                           ",
"                                         5555 55555X5#33XX3333333XXXX##                                                         ",
"                                         555    555X5##33XX333XX44444444#                                                       ",
"                                        25555  222 X55##33#XX33XX4444444###                                                     ",
"                                         5555555555X#####33#XX33XXXXXXXXXXX3#                                                   ",
"                                          555 255 5XX#####33XXX33333333333344                                                   ",
"                                        5 555  5555X#X#####3X#XX333X###XX33XXX####X                                             ",
"                                        55  55   55X##X#####X33XXX3X333XXXXXXX3333X                                             ",
"                                             5555555X##X#####X3X3XXX##############X                                             ",
"                                               5 555XX#X#####X#X3XXX##############X                                             ",
"                                              555555 XXXXX###X#X#X3XXXXXXXXXXXXXXXX                                             ",
"                                                      XXXXX##X#X#X3X##############X                                             ",
"                                                       XXXXX#X#X#X3X##############X                                             ",
"                                                       XXXXXXX#X#X#X####XXXXXXXX##X                                             ",
"                                                       XXXXXXX#X#X#X##X333333343##X                                             ",
"                                                       X#XXXXXXX#X#X##X3######43X3X                                             ",
"                                                      oo#XXXXXXX#X#X##X3#######3X3X                                             ",
"                                                      ooooXXXXXX#X#X##X3#######3X3X                                             ",
"                                                     ooooooXXXXXXX#X##X3#######3X3X                                             ",
"                                                    ===ooooXXXXXXX####X3#######3X3X                                             ",
"                                                    ===@oooXXXXXXXXX##X3#######3X3X                                             ",
"                                                   o==@@oooXXXXXXXXXXXX3#######3XXXX                                            ",
"                                                   oo=@@oooXXXXXXXX33333#######3XXXX                                            ",
"                                                   ooXoooooXXXXXXXXX#############3X@@                                           ",
"                                                   oooo,ooooXXXXXXXX#############3X,@@                                          ",
"                                                  oo,,,,,,ooXXXXXXXXXXXXXXXXXXXXXXX,1@@                                         ",
"                                                  oo,,==,,,@@XXXXXXXX###########XX,111@                                         ",
"                                                 ooo@===,,,@@@@XXXXXXXXXXXXXXXXXX,1111@                                         ",
"                                                 ooo@===,,,,,@@@XXX###----XXX@@@,,1111@@                                        ",
"                                                 ooo@@===,,,,@@@@XX#####XXooo@@@,111111@                                        ",
"                                                 oooo@====,,,@@@@@@XXXXXX@@@@@@,11,111,@                                        ",
"                                                  ooo@@===@@,@@,@@@@oooo@@@@@,,11,111111@                                       ",
"                                                  oooo@=====,,,,,,,,,oo@@@@,,,,,,,1,1111@                                       ",
"                                                  oooo@@=======,,,,,,,@@@@@,,,,,,,,,11,1@@                                      ",
"                                                   ooo@@====@=========,,,@@,,,,1,11,,,,11@                                      ",
"                                                    ooo@===@@@,===&=====,,,,,,11,1,,,,,,,@@                                     ",
"                                                    ooo@@@@@@@==========,,,,,1,,,,1,,,,,,1@                                     ",
"                                                     ooo@@ooo@=@@@=====,,,,,,1,,,11,,,,,,1@                                     ",
"                                                     oooo@o@@@@@@&===&&11,,,,,111,,,,,,111@@                                    ",
"                                                     ooooo@@@@@@@=====&111111111,,,,,11,@oo@                                    ",
"                                                     ooooo@@@@@@========@&@@111,,,,,=@@@ooO.$$                                  ",
"                                                     oooo@@@@@@==============@1,,,,==ooO$$<<<$$                                 ",
"                                                     oooo@@@@@@==============@11,,==o<<<<<<<<<$$                                ",
"                                                     oooo@@@@@@@@=============,===@<<<;;<<<<<<<$$$                              ",
"                                                     oooo@@@o@@@@@===============<<<;;;<<<<<<<<<<$$                             ",
"                                                     oooo@@@@@@@@@@====@@@=====o<<;;;$$$$$;;<$$$<<$                             ",
"                                                      oooo@@@@@@@@@===@@@@====<<;;;;$$<<;;;;;$<<<<$$                            ",
"                                                      oooo@@@@@@@@@=@@@@====@OO;;$$$$<<;;<<;$$<<<<<$                            ",
"                                                       ooo@@o@@@oo@@@@@@===@OO;;;$$<<;;;<<<$$$<<<<$$$$                          ",
"                                                       ooo@@o@@@o@@@@@@@=@@oO$;;$<<;;;++;<$$$$$$$<<<<$$$                        ",
"                                                        oo@oo@@oo@@oo@@@o@oO$;;;<<;;$++;;$$$$$$$$$$<<<<$$                       ",
"                                                        ooooo@@o@oooo@@oooO$$;$<<;;$++;;$$$$$$$$$$$$$<<<$                       ",
"                                                         ooooo@ooooo@oooooO$$$$;;;O++;;$$$$$$$$$$$$$$<<<<$$                     ",
"                                                         ooooo@oooo@@ooooO$$$$;;;;++;;$$$$$$$$$$$$$$$<<<<<$$                    ",
"                                                          oooo@oooo@ooooO$+$$;;;;++O;;$$$$$$$$$$$$$$$<<<<<<$$                   ",
"                                                           ooo@ooo@@oooO$++$$;;+++O$$$$$$$$$$$$$$$$$<<<<<<<<$                   ",
"                                                            oooooo@oooO$++$$$$+++O$++$$$$$$+++$$$$$<<<$$$<<<<$                  ",
"                                                            oooooooooOO++$$$$+++O++++$$$$$+++$$$$$$OOOOO$$<<<<<$                ",
"                                                             ooooooooO+++O+++++O++++$$$$+++++$$+++OOO++$$$$<<<<<$               ",
"                                                              oooooooO+++++OO++O+++$$$$++++++++++O++++$$$$$$$<<<<$              ",
"                                                               oooooOO++++OOO+O++++$$$+++++++++OO++++++$$$$$$$<<<<$             ",
"                                                                ooooOOOOOOOOOOO+++$$$$$$+$+O+OOO+++++++++++++$$<<<$$            "
};
