/* XPM */
static char *_04f4e355b75407292a66d37d4f2b22brvhKkOjxjO7uUYk3[] = {
/* columns rows colors chars-per-pixel */
"128 128 24 1 ",
"  c None",
". c #013B3023",
"X c #01403C37",
"o c #0157452F",
"O c #01424531",
"+ c #0153573E",
"@ c #017D5422",
"# c #01635E57",
"$ c #015A6940",
"% c #018C5A37",
"& c #018C602A",
"* c #019E6B24",
"= c #01966D3B",
"- c #0180786E",
"; c #01758756",
": c #01F08000",
"> c #01CFA725",
", c #01B88548",
"< c #01A6B07D",
"1 c #01D4A46A",
"2 c #01FFD86B",
"3 c #01A89A88",
"4 c #01BFBCB8",
"5 c white",
/* pixels */
"                                                                                                                                ",
"                                                                                                                                ",
"                                                                                                                                ",
"                                                                                                                                ",
"                                                                                                                                ",
"                                                                                                                                ",
"                                                                                                                                ",
"                                                                                                                                ",
"                                                                                                                                ",
"                                                                                                                                ",
"                                                                                                                                ",
"                                                                                                                                ",
"                                                                                                                                ",
"                                                                                                                                ",
"                                                                                                                                ",
"                                                                                                                                ",
"                                                                                                                                ",
"                                                                                                                                ",
"                                                                                                                                ",
"                                                                                                                                ",
"                                                                                                                                ",
"                                                                                                                                ",
"                                                                                                                                ",
"                                                                                                                                ",
"                                                                                                                                ",
"                                                                                                                                ",
"                                                                                                                                ",
"                                                                                                                                ",
"                                                                                                                                ",
"                                                                                                                                ",
"                                                                                                                                ",
"                                                                                                                                ",
"                                                                                                                                ",
"                                                    2                                                                           ",
"                                                                                                                                ",
"                                                                                                                                ",
"                                                                                                                                ",
"                                                    2                                                                           ",
"                                                    2                                                                           ",
"                                                    2                                                                           ",
"                                                   22                                                                           ",
"                                                    2                                                                           ",
"                                                    2              22                                                           ",
"                                                    2             22                                                            ",
"                                                   22            22                                                             ",
"                                                    2                                                                           ",
"                                   2                2      :    2                                                               ",
"                                    22              2          2                                                                ",
"                                     2             22     :   22                                                                ",
"                                      2            22      : 22                                                                 ",
"                                       222      :  222::    22   22                                                             ",
"                                        22  :   :: 222:: : 222        222                                                       ",
"                                         222::   : 222: ::222 :     222                                                         ",
"                                          2222 2   225:::2252  :: 222                                                           ",
"                                           2222 :  255::22552:   22:            22                                              ",
"                                          :::22222:25522255522222            2222                                               ",
"                                            ::222222552:5552222:  :       2222                                                  ",
"                                            :::55522552555522222 2  ::: 222                                                     ",
"                                               255555555255222225222::22222                                                     ",
"                                         ::    225555555225552555222:2222                                                       ",
"                                             : 2225255552555555555222222   :                                                    ",
"                                               2225555555555555525555522::                                                      ",
"                                          :    22255555555555555255522222:::                                                    ",
"                                            ::2222555555555555555555552222          >*                                          ",
"                                            ::2222555555555555XXX555222222222      >55>>*                                       ",
"                                             22255555555XXXXX5222X552222           >2>>*                                        ",
"                                         :   2255555555XXX2222XXXXXXXX2           >22>**                                        ",
"                                        :    2225555555XXXX33333XX2223X          >>>>**                                         ",
"                                        222225555255555XX3XX33333333333XX        2**>*                                          ",
"                                     2222222222225555555X3##XX33333333334X      *2>**>                                          ",
"                                  22  222  ::::225555555X####XX33333333333X     >****                                           ",
"                                22            :55255XX22X####XXX33333XXX3XXXX     **                                            ",
"                                              :52255X#XXX######XX333344444444X                                                  ",
"                                        ::   ::22252X#XXX######3XXX333XX444444XX                                                ",
"                                             :2222522X##X########3XX333XXXXXXXXXXX                                              ",
"                                                22522XX#X########3XXX333333333333XXX                                            ",
"                                                222:: XXXXX#######X3XX3333333333333XX                                           ",
"                                                22 ::  XXXXX######X3XXX333XXXXXXX333XXXXXXX                                     ",
"                                                22 :    XXXXX#####X3X#XX33X#3333XXXXX#3333X                                     ",
"                                               22       XXXXXXX###X#X#X#X3XX###########X##X                                     ",
"                                               22       XXXXXXX###X#X#X#XXXX##############X                                     ",
"                                               22       X#XXXXXX##X#X#X#XXXX#############XX                                     ",
"                                               22       o#XXXXXXX#X#X#X#X#XXXXXXX########XX                                     ",
"                                               2       ooooXXXXXX#X#X#X#X##X#######333333X                                      ",
"                                              22      1=ooooXXXXXXX#X#X#X##X##XXXXXXXXX#3X                                      ",
"                                               2     1==ooooXXXXXXXX##X#X##X##XXXXXXXXX#3X                                      ",
"                                                    1==@@oooXXXXXXXXX#X#X##X##XXXXXXXXX#3X                                      ",
"                                                    ==@@ooooXXXXXXXXXXX#X##X##X#XXXXXXX#3X                                      ",
"                                                    ==@oooooXXXXXXXX33XXX##X##X#3XXXXXX#3X                                      ",
"                                                    o=ooooooXXXXXXXXX##XX##X##X###3X@XX#3X                                      ",
"                                                    oooo,,,ooXXXXXXXX###XXXXXXX###3X,@X##X                                      ",
"                                                    oo1,,,,ooXXXXXXXXXXXXXXXXXXXXXXX,1@@XX                                      ",
"                                                    o==,,,,,@@XXXXXXXX###########XX,111@                                        ",
"                                                   o@@==,,,,@@@@XXXXXXXXXXXXXXXXXX,1111@                                        ",
"                                                   o@@====,,,,@@@XXX###----XXX@@@,,1111@@                                       ",
"                                                  oo@@@==,,,,=@@@@XX#####XXooo@@@,111111@                                       ",
"                                                  oo@@@=====,,@@@@@@XXXXXX@@@@@@,11,111,@                                       ",
"                                                  oooo@@==========@@@oooo@@@@@@@@1,111111@                                      ",
"                                                  oooo@@===========@@@oo@@@@@@@@@@,1,1111@                                      ",
"                                                   oooo@@============@@@@@@@@@@@@@@,,11,1@@                                     ",
"                                                   oooo@@====@=======@@@@@@@@@@@@@@1,11111@                                     ",
"                                                    ooo@@===@@@=======@@@@@@@@@@@@@@,1,1,,@@                                    ",
"                                                     oo@@@@@@@@=========@@@@@@@,,,,@,,,,1,1@                                    ",
"                                                      ooo@@ooo@=@@@=====,,,,,,1,,,11,,,,,,1@                                    ",
"                                                      oooo@o@@@@@@&===&&11,,,,,111,,,,,,111@@                                   ",
"                                                      ooooo@@@@@@@=====&111111111,,,,,11,@oo@                                   ",
"                                                      ooooo@@@@@@========@&@@111,,,,,=@@@ooO.$$                                 ",
"                                                      oooo@@@@@@==============@1,,,,==ooO$$<<<$$                                ",
"                                                      oooo@@@@@@==============@11,,==o<<<<<<<<<$$                               ",
"                                                      oooo@@@@@@@@=============,===@<<<;;<<<<<<<$$$                             ",
"                                                      oooo@@@o@@@@@===============<<<;;;<<<<<<<<<<$$                            ",
"                                                      oooo@@@@@@@@@@====@@@=====o<<;;;$$$$$;;<$$<<<$                            ",
"                                                       oooo@@@@@@@@@===@@@@====<<;;;;$$<<;;;<<$<<<<$$                           ",
"                                                       oooo@@@@@@@@@=@@@@====@OO;;$$$$<<;;;<;$$<<<<<$                           ",
"                                                        ooo@@o@@@oo@@@@@@===@OO;;;$$<<;;;<<<<$$<<<<$$$$                         ",
"                                                        ooo@@o@@@o@@@@@@@=@@oO$;;$<<;;;++;<$$$$$$$<<<<$$$                       ",
"                                                         oo@oo@@oo@@oo@@@o@oO$;;;<<;;$++;;$$$$$$$$$$<<<<$$                      ",
"                                                         ooooo@@o@oooo@@oooO$$;$<<;;$++;;$$$$$$$$$$$$$<<<$                      ",
"                                                          ooooo@ooooo@oooooO$$$$;;;O++;;$$$$$$$$$$$$$$<<<<$$                    ",
"                                                          ooooo@oooo@@ooooO$$$$;;;;++;;$$$$$$$$$$$$$$$<<<<<$$                   ",
"                                                           oooo@oooo@ooooO$+$$;;;;++O;;$$$$$$$$$$$$$$$<<<<<<$$                  ",
"                                                            ooo@ooo@@oooO$++$$;;+++O$$$$$$$$$$$$$$$$$<<<<<<<<$                  ",
"                                                             oooooo@oooO$++$$$$+++O$++$$$$$$+++$$$$$<<<$$$<<<<$                 ",
"                                                             oooooooooOO++$$$$+++O++++$$$$$+++$$$$$$OOOOO$$<<<<<$               ",
"                                                              ooooooooO+++O+++++O++++$$$$+++++$$+++OOO++$$$$<<<<<$              ",
"                                                               oooooooO+++++OO++O+++$$$$++++++++++O++++$$$$$$$<<<<$             ",
"                                                                oooooOO++++OOO+O++++$$$+++++++++OO++++++$$$$$$$<<<<$            ",
"                                                                 ooooOOOOOOOOOOO+++$$$$$$+$+O+OOO+++++++++++++$$<<<$$           "
};
