/* XPM */
static char *_04f4e355b75407292a66d37d4f2b22brvhKkOjxjO7uUYk3[] = {
/* columns rows colors chars-per-pixel */
"128 128 24 1 ",
"  c None",
". c #3B3023",
"X c #403C37",
"o c #57452F",
"O c #424531",
"+ c #53573E",
"@ c #7D5422",
"# c #635E57",
"$ c #5A6940",
"% c #8C5A37",
"& c #8C602A",
"* c #9E6B24",
"= c #966D3B",
"- c #80786E",
"; c #758756",
": c #F08000",
"> c #CFA725",
", c #B88548",
"< c #A6B07D",
"1 c #D4A46A",
"2 c #FFD86B",
"3 c #A89A88",
"4 c #BFBCB8",
"5 c white",
/* pixels */
"                                                                                                                                ",
"                                                                                                                                ",
"                                                                                                                                ",
"                                                                                                                                ",
"                                                                                                                                ",
"                                                                                                                                ",
"                                                                                                                                ",
"                                                                                                                                ",
"                                                                                                                                ",
"                                                                                                                                ",
"                                                                                                                                ",
"                                                                                                                                ",
"                                                                                                                                ",
"                                                                                                                                ",
"                                                                                                                                ",
"                                                                                                                                ",
"                                                                                                                                ",
"                                                                                                                                ",
"                                                                                                                                ",
"                                                                                                                                ",
"                                                                                                                                ",
"                                                                                                                                ",
"                                                                                                                                ",
"                                                                                                                                ",
"                                                                                                                                ",
"                                                                                                                                ",
"                                                                                                                                ",
"                                                                                                                                ",
"                                                                                                                                ",
"                                                                                                                                ",
"                                                                                                                                ",
"                                                                                                                                ",
"                                                                                                                                ",
"                                                                                                                                ",
"                                                                                                                                ",
"                                                                                                                                ",
"                                                                                                                                ",
"                                                                                                                                ",
"                                      :     : :                                                                                 ",
"                                      :::  :: ::                                                                                ",
"                                      22::::: ::                                                                                ",
"                                      :222:::::::                                                                               ",
"                                      ::222::::::     :  :                                                                      ",
"                                       :2222222::    :::::                                                                      ",
"                                       :2222222::    :::::                                                                      ",
"                                 ::    :225222:::   ::22:::                                                                     ",
"                                 :::::::2252222::: :::22:::                  XXXXX                                              ",
"                                  ::22222255222::::::2:2:::                 XX444XX                                             ",
"                                   :22 22225225222222::22::            XXXXXX34444X                                             ",
"                                    ::225555525222222::22::          XX#XX##X33444X                                             ",
"                                   :::222255525522222222:::          X33XX##XX34XXX                                             ",
"                              ::::::::222225555555522222:::::        X#3#X###X34XXXXXX4XXXX                                     ",
"                                ::2:::25555555555522222:::2:::       X#3#XXXXXXXX3333X4X43X                                     ",
"                                :::22::22555555555522222222:2:       XX33XXXXX##X3333X4X43X             >**                     ",
"                              :::22222::225555555555555222::::      XXX#3XXXX##3X3333XXX44X            52*>5                    ",
"                              :2222222222225555555522222222::         XX3XXX###3X3333XXX34X           25**252>                  ",
"                              :2222222222255555555222522:::::          X3#X####3X333333334XX           **>*>>>>                 ",
"                              :::::::222225555555522222:::::           X##X####3XX333333344X           >***>2>*                 ",
"                                  ::2222225555555522:2: :::            XX##X###33X333333334X              **>**                 ",
"                                 ::::222222522255552:::                 X#XX####3X333333334XX              ***                  ",
"                                 :::::22:222222255522::                 XXXX####3X3333333344X                                   ",
"                                   ::::::2222222255522::                X#XX####3XX333333334X                                   ",
"                                    :::::::2222::255522:                XXXX####33X333333334X                                   ",
"                                       ::::22222::25522::               XXXXX####3X3333333334                                   ",
"                                       :::2::2222::25522::               XXXX####3X3333333334                                   ",
"                                       ::::::2222:::25522:               XXXX####3XX333333334                                   ",
"                                        :::::::::: :255 2                XXXX####33X333333334X                                  ",
"                                         :::::::    :25522               XXXX#####3X333333334X                                  ",
"                                         ::::       :225522               XXXX####3X333333334X                                  ",
"                                                     :22  22              XXXX####3X33333XXXXX                                  ",
"                                                      :2                  XXXX####3XX333X4444X                                  ",
"                                                      ::                  X#XX####33X333X4444X                                  ",
"                                                       22                  #XXX####33333X4444X                                  ",
"                                                                          XXXXX#####X333X4444XX                                 ",
"                                                                        XXXXXXX#####X333X44444X                                 ",
"                                                                    oooXXXXXXXX#####X333X44444X                                 ",
"                                                                   oo,@oooooXXXX###XXX33X44444X                                 ",
"                                                                   o11=@@@ooXXXX##XX#X333X4444X                                 ",
"                                                                   o,,==@@ooX#XX#XX#3X333XXXXXX                                 ",
"                                                                   o,=ooooXoXXXXXX#33XX33333334X                                ",
"                                                                   oo=o11@XXXXXXX##XX#X333333344X                               ",
"                                                                    ooo11@XXXXXXX#XX#3XX33333334X                               ",
"                                                                     o111@@XXXXXXXX##3XX33333334X                               ",
"                                                                    oo11==@XXXXXXX###XXX33333334X                               ",
"                                                                    oo1==,,@XXXXXX#XX33X33333334X                               ",
"                                                                 ooooo1===,@XXXXXX#X33XX33333334X                               ",
"                                                                ooo=oo1===,@oXXXXXXX##XX33333334X                               ",
"                                                                oo==oo@=@=,@@XXXXX###XXX33333334X                               ",
"                                                              oooo==oo@@@=,,@XXXXXX#XXXXX333333443                              ",
"                                                             o==@o@@ooo@@==,@oXXXXXXX#XXXXXXXXXXXXX                             ",
"                                                             o==@o@@ooo@@==,,@XXXXXX##XXX34XXX33XXX                             ",
"                                                           ooo==@o@=ooo@@==,,,XXXXX#####X34333333XX                             ",
"                                                           oo===@ooooooo@@@,,,XXXXXX##XXXXXXXXXXXXX                             ",
"                                                          o=o==@@oooooo@@==,,,,XXXXX#XX333333333XXX                             ",
"                                                         o==oo=@oooo@@@@@=,,,,,XXXXXXX3XX44443344XX                             ",
"                                                         o==oo@@ooo@@@@====,,,,@@@@XX33XXXXXXX44XX                              ",
"                                                         o@@@o@@oo@@@@@===,,,,,@@@@X33XXXXXXX44XX                               ",
"                                                         oo@@ooooo@@@@====,,1,,@@@@X33X@@XXX44XX                                ",
"                                                         ooooooooo@@@@==,,,,1,,@@@@X33X@@@X34XX                                 ",
"                                                           ooooooooo@@==,,=,,,,,@@@@XXX@@@XXXX                                  ",
"                                                               ooooo@@=====,,,,,,@@@@@@@@,=,oo                                  ",
"                                                               ooooo@@=====,,,,,,@@@@@@@@1,,,o                                  ",
"                                                               oooo@@@@====,,,,,,@@@@@@@,1,1,o                                  ",
"                                                               oooo@@@@===,,,=,,,===,,,,,111,o                                  ",
"                                                                ooooo@@@======,11111111111111o                                  ",
"                                                                ooooo@@@======,,,,,1111111111oo                                 ",
"                                                                 oooo@@@@=@@======,11111111@@oo                                 ",
"                                                                 oooo@@@@@@@=====,11,@@@@o$$$$$$$$$$                            ",
"                                                                  oooo@oo@@@=====,,=$$$<<<<<<<<<<<$$                            ",
"                                                                  ooooooo@@@=@@=$$$$<<<;;;;;;$$<<<$$$                           ",
"                                                                   oooooo@@@o@@$$<<<;;;;;;;;;<<<<<<<$                           ",
"                                                                    ooooooooo@@<<<$$$;;;+++OOO++$$<<$$                          ",
"                                                                    oooooooo@O$$$$;;;++++$++++++++<$$$$                         ",
"                                                                     oooooooO$$$$;;+++$$$$++++$<<++++<$                         ",
"                                                                     ooooooO$$$$;;++$$$$;;;$$;;<$<<<<<$                         ",
"                                                                      ooooo$$$++++$$$$$$$;;;;;$<<<<;;<$$                        ",
"                                                                      oooo$$+++OO$$$$;;;;;<<<<<;;;;;;<$$                        ",
"                                                                       oo$$++OO$$$$;;;<<<<<<$$;;;;;$;;<$$                       ",
"                                                                      Oo+$++OO$$$$$$$<<<$$$$$<;;;;;;;;<<$                       ",
"                                                                      O++++OO$$$$$$$<<$$$$$$$$;;;;;;;;;<<$                      ",
"                                                                     OO+++OO$$$$$$$<<$$$$$++++++++++;;;<<$$                     ",
"                                                                     O+++OO$$$+++$$$$$$$$+++++++++++;;;<<<$                     ",
"                                                                    OO+OOO++++++$$$$$$$+++++$$$;;;;;<<<<<<$$                    ",
"                                                                    OO+OO++++++$$$$$$$++$$$$$$$$;;;;;<$;<<<$$                   ",
"                                                                     OOOO+++++$$$$$++++$$$$$$$$$$;;;;;;;;<<<$$                  ",
"                                                                      OOO+++++$$$+++++$++$$$$$$$$$$$$$$;;;<<<$$                 ",
"                                                                       OOO++++++++++++++++$OOOOO$$$;;;;;;;<<<$$$                ",
"                                                                       OOO+O++OOOO+++++OOOOOO$$$;;;;;;;;;;;<<<$$$               "
};
