/* XPM */
static char *_04f4e355b75407292a66d37d4f2b22brvhKkOjxjO7uUYk3[] = {
/* columns rows colors chars-per-pixel */
"128 128 24 1 ",
"  c None",
". c #013B3023",
"X c #01403C37",
"o c #0157452F",
"O c #01424531",
"+ c #0153573E",
"@ c #017D5422",
"# c #01635E57",
"$ c #015A6940",
"% c #018C5A37",
"& c #018C602A",
"* c #019E6B24",
"= c #01966D3B",
"- c #0180786E",
"; c #01758756",
": c #01F08000",
"> c #01CFA725",
", c #01B88548",
"< c #01A6B07D",
"1 c #01D4A46A",
"2 c #01FFD86B",
"3 c #01A89A88",
"4 c #01BFBCB8",
"5 c white",
/* pixels */
"                                                                                                                                ",
"                                                                                                                                ",
"                                                                                                                                ",
"                                                                                                                                ",
"                                                                                                                                ",
"                                                                                                                                ",
"                                                                                                                                ",
"                                                                                                                                ",
"                                                                                                                                ",
"                                                                                                                                ",
"                                                                                                                                ",
"                                                                                                                                ",
"                                                                                                                                ",
"                                                                                                                                ",
"                                                                                                                                ",
"                                                                                                                                ",
"                                                                                                                                ",
"                                                                                                                                ",
"                                                                                                                                ",
"                                                                                                                                ",
"                                                                                                                                ",
"                                                                                                                                ",
"                                                                                                                                ",
"                                                                                                                                ",
"                                                                                                                                ",
"                                                                                                                                ",
"                                                                                                                                ",
"                                                                                                                                ",
"                                                                                                                                ",
"                                                                                                                                ",
"                                                                                                                                ",
"                                                                                                                                ",
"                                                                                                                                ",
"                                                                                                                                ",
"                                                                                                                                ",
"                                                                                                                                ",
"                                                                                                                                ",
"                                   2222  22::222                                                                                ",
"                               2    2:::::::::::2                                                                               ",
"                             22  22 2  2    2:::22                                                                              ",
"                            2:: 2:::          :::22                                                                             ",
"                           2::                  ::2                                                                             ",
"                           ::   :                                                                                               ",
"                          2::                   22                                                                              ",
"                          2       :      :  2     22                                                                            ",
"                         22   :             :     22                                                                            ",
"                         2   :       : %  2 2 2   22                                                                            ",
"                                    %:    2   2   :2  222                                                                       ",
"                                         22       %2  2:22                                                                      ",
"                         2               :2       %   2::2                                                                      ",
"                         2              ::            22:2                                                                      ",
"                           2:          22  22         2::2                                                                      ",
"                            :                        22222                                                                      ",
"                            :                       22222                                                                       ",
"                                          2::2                                                                                  ",
"                           22             22   2            XXX                                                                 ",
"                            22                :2       XX33XX3#33                                                               ",
"                                             2222     XXXX33XX#333                                                              ",
"                              ::  2    2      22     XX3#X333X##34X                                                             ",
"                           222::::            22     X##3XX3333#344                                                             ",
"                            22:::::2:222             X##33XX3333334X                                                            ",
"                            2222:::::22  2          XX###3#X33333344X                                                           ",
"                             222222222  2:         :X#####3XX33333344X                                                          ",
"                               222222               X#####33XX3333334XX                                                         ",
"                                                   X#X#####33X33333344XX                                                        ",
"                                                   ##X######3XX33333344XX                                                       ",
"                                                   ###X######3XX33333343XX                                                      ",
"                                                  XX###X#####33X3333XXXXXX                                                      ",
"                                                  XX##########3XX33XX44444X                                                     ",
"                                                    XX##X######3X333XX44444                                                     ",
"                                                     XX#X######33X333X44444X                                               2    ",
"                                                     XXXXX######3X333XX44444X                                              *>*  ",
"                                                      XXXXX######3X3333#44444                                             >**** ",
"                                                       XXXX#######3X333######X                                           >5>*** ",
"                                                        XXXX######333333333344X                                         22>>**  ",
"                                                         XXXX######3X3333333344X                                       55>>**   ",
"                                                         XXXX#######XX3333333344X                                       *>**    ",
"                                                        XXXXXX####XXXXX333333334X                                        >*     ",
"                                                        XX#XXXX#XXX##XX3333333344X                                              ",
"                                                      ooXoooXXX#XX##XXXX3333333344X                                             ",
"                                                    ooooo@ooXXXX#X#XX##X33333333344                                             ",
"                                                    o,,,=ooooXXX##XX###XX3333333334X                                            ",
"                                                    @,,==oooooXXX#X###XXXX33XXXXXXXXX                                           ",
"                                                    o@@@ooo,,ooXX###XXX#3X3XX###XXXXXXX                                         ",
"                                                    oo@@o,,,,@oXXX##X###XXXX333#XX#333X                                         ",
"                                                     oo@o,,,@@@oXXX#X#XXX#3X#########XX                                         ",
"                                                      ooo,=@@@@@ooX##XX####XXXXXXXXXXXX                                         ",
"                                                       oo,@@@@@@@oXX#X####XX#333333333X                                         ",
"                                                       ooo,oo@=@@@oXX#X##XX#33XXXXX#3XX                                         ",
"                                                      o=oooooo==@@@XX###XX#33X####X3XX                                          ",
"                                                      o==ooooo==@@@@XX#XX#33X####X33X                                           ",
"                                                      o==ooooooo,,,@XXX#X#3XX###X#3XX                                           ",
"                                                      oo=@ooooo==,1,@XX#XXXX###X#3XX                                            ",
"                                                      ooo@@ooo@==,,1,XXX#XX#####XXX@                                            ",
"                                                      ooo@@ooo@===,,,@XXX######XX==@@                                           ",
"                                                      o=oooooo@@====@@XXXXXXXX=====,@                                           ",
"                                                      o=@ooooo@@=====@@@@@@@@@@@=,,,@@                                          ",
"                                                      o=@@oooo@@===,,=@@@@@@@@@=,,,,,@@                                         ",
"                                                      o==@@ooo@@@===,==@@@@@@@==,,,11,@                                         ",
"                                                      o=@=@oo@@@=====,=====@@@,,,,1111@@                                        ",
"                                                      oo@oooo@@@=====,,======,,,1111111@                                        ",
"                                                      ooooooooo@====,,,,,,=,,,11,,11111,@                                       ",
"                                                     oo@ooooooo@======,,,,,,,,,,,,1,,,11@@                                      ",
"                                                     oo=@oooooo@@========,,,===,,,,11111,@                                      ",
"                                                     o==@@oooo@@@===========,,,,,,,111111,@                                     ",
"                                                     oo=@@oooo@@@@==========,,===,,11111111@                                    ",
"                                                      oo@@oooo@@@@@============,,,===11111$$$$$$$$                              ",
"                                                       oo@oooo@@@@@@@@@=======,,,===OOO$<<<<<<<<<$                              ",
"                                                        ooooooo@@@@@@@@==========OOOO<<<<<;;;;<<<$$                             ",
"                                                          ooooo@@@@@@@===@@@===OOO<<<<<<;;;;;;;<<<$                             ",
"                                                           ooooo@@oo@@==@@@@=OOO<<<<<<;;;$;;;;;<<<$                             ",
"                                                           oooooo@oo@@=@@@@OOO$<<<<;;;;$$$$$$$$<<<$                             ",
"                                                            oooooooo@@@@@@OO$$$<<;;;$$$$$$$$$$<<<<$$$                           ",
"                                                             oooooooooo@OO++$$$;;;$O$$$$$$<<<;;;<<$$$$                          ",
"                                                              oooooooooO+++$$$$;$$OO$$$<<<;;;;;;;<<<<$$                         ",
"                                                               oooooooO+++$$$$$$OOO$$$<<;;;$$;;;;<<<<<$                         ",
"                                                                 oooOO+++$$$++OOO$$$$$;;;$$$$$$<<;;;$<<$                        ",
"                                                                  OO++++$$$++OO$++$$$;;;$$$$$$$;;;;;<<<$                        ",
"                                                                 OO+++O$$$$+OO$++$$$;;$$$$$$$$$$;;;<<$<<$                       ",
"                                                                 O+++OO$$$++++++$$$$;$$$$$$$$$;;;;;<$<<<$$                      ",
"                                                                 O++OO+++++++++$$$$$$$$$$$$$;;;;<<<$$<<<<$                      ",
"                                                                 OOOO++++O++++$$++$$$$$$$$;;;$$$$$;;;$;<<$                      ",
"                                                                 OOOO+++O+++++++++$$$$$$$;;$$$$$$;;;;;;<<$$                     ",
"                                                                  OOO++OO++OO$++$$$$$$$$$$$$$$$$$;;;;;;<<<$$                    ",
"                                                                   OOOOOO++O+++$$$$$$$$$$$OO$$$;;;;<<<<<<<<$$                   ",
"                                                                    OOOOOOO+++$$$$$$$$++OOO$$$;;$<<$$$$$<<$$$$$                 ",
"                                                                    OOOOOOO+++++$$$$$++OOO$$$$$<<<$$$;;<<<<<$$$                 ",
"                                                                    OOOOOOOO+++++$$+++OOO$$$$$$<$$$$;;$<$<<<<<$                 "
};
