/* XPM */
static char *_04f4e355b75407292a66d37d4f2b22brvhKkOjxjO7uUYk3[] = {
/* columns rows colors chars-per-pixel */
"128 128 24 1 ",
"  c None",
". c #013B3023",
"X c #01403C37",
"o c #0157452F",
"O c #01424531",
"+ c #0153573E",
"@ c #017D5422",
"# c #01635E57",
"$ c #015A6940",
"% c #018C5A37",
"& c #018C602A",
"* c #019E6B24",
"= c #01966D3B",
"- c #0180786E",
"; c #01758756",
": c #01F08000",
"> c #01CFA725",
", c #01B88548",
"< c #01A6B07D",
"1 c #01D4A46A",
"2 c #01FFD86B",
"3 c #01A89A88",
"4 c #01BFBCB8",
"5 c white",
/* pixels */
"                                                                                                                                ",
"                                                                                                                                ",
"                                                                                                                                ",
"                                                                                                                                ",
"                                                                                                                                ",
"                                                                                                                                ",
"                                                                                                                                ",
"                                                                                                                                ",
"                                                                                                                                ",
"                                                                                                                                ",
"                                                                                                                                ",
"                                                                                                                                ",
"                                                                                                                                ",
"                                                                                                                                ",
"                                                                                                                                ",
"                                                                                                                                ",
"                                                                                                                                ",
"                                                                                                                                ",
"                                                                                                                                ",
"                                                                                                                                ",
"                                                                                                                                ",
"                                                                                                                                ",
"                                                                                                                                ",
"                                                                                                                                ",
"                                                                                                                                ",
"                                                                                                                                ",
"                                                                                                                                ",
"                                                                                                                                ",
"                                                                                                                                ",
"                                                                                                                                ",
"                                                                                                                                ",
"                                                                                                                                ",
"                                                                                                                                ",
"                                                                                                                                ",
"                                                                                                                                ",
"                                                                                                                                ",
"                                                                                                                                ",
"                                                                                                                                ",
"                                                                                                                                ",
"                                                                                                                                ",
"                                                                                                                                ",
"                                                                                                                                ",
"                                                                                                                                ",
"                                                                                                                                ",
"                                                                                                                                ",
"                                                                                                                                ",
"                                                                                                                                ",
"                                                                                                                                ",
"                                                                                                                                ",
"                                                                                                                                ",
"                                                                                                                                ",
"                                                                                                                                ",
"                                                                                                                                ",
"                                                                                                                                ",
"                                                                                                                                ",
"                                                                                                                                ",
"                                                                                                                                ",
"                                                                                                                                ",
"                                                                                                                                ",
"                                                                                                                                ",
"                                                                                                                                ",
"                                                                                                                                ",
"                                                              XXXXX    XXXXXX                                                   ",
"                                                  X3#         X##33XXXXX#333X                                                   ",
"                                                  X##         X#############X                                                   ",
"                                                  XXXXXXXXXXXXXXXXXXXXXXXXXXX                                                   ",
"                                                  XXXXXXXXXXXXX######XXXXXXXX                                                   ",
"                                                X33333#X3X3X##X#############X                                                   ",
"                                                X3#####X3X#X##X#############X                                                   ",
"                                                X3#####X#X#X##X##3333333333#X                                                   ",
"                                                X3#####X#X#X##X##XXXXXXXX#3#X                                                   ",
"                                                X3#####X#X#X##X##X########3#X                                                   ",
"                                                X3#####X#X#X##X##X#######X3#X                                                   ",
"                                                X33####X#X#X##X##X#######X3#X                                                   ",
"                                                X#3####X#X#X##X##X#######X3#X                                                   ",
"                                                X######X#X#X##X##X#######X3#X                                                   ",
"                                                XXXXXXXXXXXXX#X##X#######XXXX                                                   ",
"                                                X###X##XXXXXXXXXXX#########XX                                                   ",
"                                                X###XXXXXXXXXXX############Xo@                                                  ",
"                                                XXXXXXXXXXXXXXX############X@@@                                                 ",
"                                                    XXXXXXXXXXX#33333333333@@==@@                                               ",
"                                                       XooooooXXXXXXXXXXXXX@==1,@@                                              ",
"                                                     ooooo====ooXXX##XXXXX===,11,=@                                             ",
"                                                   ooo@========ooXXXXXXXo@@=,,,11,=@                                            ",
"                                                  oo@@===o======ooXXXoooo@@@@@==,,,=@                                           ",
"                                                  oo@@===========oooooo@@@@@@@=,,,,,=                                           ",
"                                                  ooo@@@===,,,====ooooo@@@@@@==,,,,,,@                                          ",
"                                                   ooo@@@@=========@ooo@@@@@==,,,,,,,@                                          ",
"                                                   oooooo@@@======@@@oo@@@===,,,,,,,,@                                          ",
"                                                     oooo@@@@@=,,11@@@@@====,,,,,,,1,@                                          ",
"                                                      oooo@@@@==,,11@@=====,,,,,,=,1,@                                          ",
"                                                       oooo@@@==,1111=====,,,===,,,11@                                          ",
"                                                      o@ooo@@@@=111,11===,,,===,,,,,1@                                          ",
"                                                     o@@oo@@@@@111,,==========,,,,,,1@                                          ",
"                                                     o,,ooooooo@=============,,,,,,,1@@                                         ",
"                                                     o,@ooooooo@@@============,,,,,,1,@                                         ",
"                                                     o@@oooooo@@@@=============,,,,,11@                                         ",
"                                                     oo@oooo@@@@@@============,,,,,111@@                                        ",
"                                                      o@oooo@@@@@@===========,,=,,,111,@                                        ",
"                                                      ooooooooo@@===========,,,,,,1111,@                                        ",
"                                                      o=oooooo@@@@@@=======,,1111=1111,@                                        ",
"                                                      o@@ooo@@@@@@@@=======,,111111111,@@                                       ",
"                                                      o@@ooo@@@@@@@========,111111111,,,@                                       ",
"                                                      o@@ooo@@@@@@@@@=====1,,,,,==,,1,,,@                                       ",
"                                                       ooooo@@@@@@@@@@@@@=========,,,,,@@                                       ",
"                                                       oooooo@@@@@@@@@@@@===@@@@=,,,@@@@@$$$$$$$                           *    ",
"                                                       o@ooooo@@o@@@@@@@==@@@@@=,,@@ooooo<<<<<$$$                       >25>>>  ",
"                                                       o@@ooooo@o@@@oo@@=@@@@@o@@@oooo<<<<$$$<<<$                       >22>*>> ",
"                                                       oooooooooo@@ooo@=@@@@o@@@oOO<<<<;;$<<<<<<$                       >>>>*>* ",
"                                                        ooooooooo@ooo@@@@@oo@@@OOO<;;;;;;;;;<<<<$                         >>>>* ",
"                                                             ooooooo@@@@@o@@@OOO$;;;;;$$;;;<<$<<<$                              ",
"                                                              oooooo@@@oo@@oOO$$;;$$$$;;;<$<<<<<<<$$$$                          ",
"                                                               ooooo@@oo@@oOO+$$;$$$$;;;;<<<$;;;;;<<$$                          ",
"                                                               oooooooo@@oOO++$$$$$$;;;;<$$$$$;;$;;<<<                          ",
"                                                                ooooooo@@OO++$$$$$;;;;;;;;;;;;;;;$;;;<                          ",
"                                                                 ooooo@@OO++$$$++;;;$$;;;$$$$$$$$$$$;<$                         ",
"                                                                 ooooooO+++$++++O;;$$$$$$$$$<<<<<$$$;<$$                        ",
"                                                                  ooooOO+$$$+++OO;$$$$$$$$$$<<<<<$$$;<<<$                       ",
"                                                                  ooooO++$$+++OO;$$$$$$$$<<<<<<$$$$$;;$<<$                      ",
"                                                                   ooOO++$$+++O$$$$$$$$$<<$$$$$$$$;;;;$<<<$                     ",
"                                                                    OOO+$+++O+$$$$$++$$$<$$$$$$$$$;;<<<<<<<$                    ",
"                                                                    OOO+$+O+++$$$++++$$$$$$$$$$$;;;<<<$;;<<$$                   ",
"                                                                    OOO+OOO++$$$$+O++$$$$$++$$$;;;;;;;;;;<<<<$                  ",
"                                                                    OOOOOOO++$$$++++$$$$$$+$$$$;$$$$;;;;;;<<<<<                 ",
"                                                                    OOOOOO++$$+++O+$$$$$$+++++++O$$$;;;;;;;<<<<$                ",
"                                                                    OOOOO++++++OOO++++$$+++++OOO$$$$$$$;;;;;<$<<$               ",
"                                                                    OOOOO+++++OOOO+++++++++O$++$$$$$$$$;;;;;;$$<<$$             ",
"                                                                    OOOOO+++OOOOOOOOO++++OO$++++$$;;;;;;;;;;;$$$<<$$$           "
};
