/* XPM */
static char *_c078dd91542442b8b13ca17a1e0040azELRNqoaxW3LLCb6[] = {
/* columns rows colors chars-per-pixel */
"64 64 6 1 ",
"  c None",
". c #01000000",
"X c #01542054",
"o c #01871387",
"O c #01822A82",
"L c #01006c21",

/* pixels */
"                                                                ",
"                                                                ",
"                                                                ",
"                                                                ",
"                                                                ",
"          o                                                     ",
"          ooo                                                   ",
"          ooooo                                                 ",
"           oooooooo                                             ",
"            ooOooooo                                            ",
"            oOOOOOoooooo                                        ",
"            oOOOOOOOooooooo                                     ",
"            ooOO   OOOOOoooo                                    ",
"             oOOO    OOOOOooooo                                 ",
"             oOOO      OOOOoooooo                      o        ",
"              oOO        OOOOOooooo                  ooo        ",
"              ooO          XOOOOooooo               oooo        ",
"              ooO          XX OOOOOOOoooo        oooooo         ",
"              ooO           X   OOOOOOOOOOoooooooooooo          ",
"               oOO          XX     OOOOOOOOOOOOOOOOOo           ",
"               ooO           X         OOOOOOOOOOOOOo           ",
"               ooOO         X             X      OOo            ",
"                ooO         X              X    OOoo            ",
"                ooO         X             X     Ooo             ",
"               oooO          X           XX     Oo              ",
"               ooOO           X          X     Ooo              ",
"               ooOO           X      XXXXX     Ooo              ",
"              ooOOOXXXX              X        OOo               ",
"              oOO     X      LLLL   XX       OOoo               ",
"             ooOO     X     L....L           OOoo               ",
"             ooO      X     L.....L          OOoo               ",
"            ooOO      XXXX L......L          OOo                ",
"           oooO            L.......L         OOo                ",
"           oOOO            L......L          OOo                ",
"          oOO              L......L XX       Ooo                ",
"         oOOO              LL....L   XX      Ooo                ",
"        ooOO                 LLLL     XX     OOo                ",
"       oooOO           XXX             X      Ooo               ",
"       oooOOO          X               X      Ooo               ",
"      ooooooOOOO   XXXXX    X          X      OOoo              ",
"     ooo   ooooOOOXX        X          X       Oooo             ",
"              ooooOO       XX           XX      Oooo            ",
"                oooO       XX            XX     Ooooo           ",
"                 ooOO       XX            X      Ooooo          ",
"                   oOOO      X           OXOOOOOOooooooo        ",
"                    ooOO    X        OOOOOoooooooooooooooo      ",
"                     ooOO   X      OOooooooooo                  ",
"                      ooOO  X    OOoooooo                       ",
"                       ooO XX   OOooo                           ",
"                        ooOXXOOOOoo                             ",
"                         oOOOOooo                               ",
"                         ooOOoo                                 ",
"                          oooo                                  ",
"                          oooo                                  ",
"                           oo                                   ",
"                           oo                                   ",
"                           oo                                   ",
"                                                                ",
"                                                                ",
"                                                                ",
"                                                                ",
"                                                                ",
"                                                                ",
"                                                                "
};
