/* XPM */
static char *dummy[]={
"10 10 10 1",
"1 c #FFFFFFFE",
"  c #FF000000",
"a c #FF370617",
"b c #FF6A040F",
"c c #FF9D0208",
"d c #FFD00000",
"e c #FFDC2F02",
"f c #FFE85D04",
"g c #FFF48C06",
"h c #FFFAA307",

"hhhhhhhhhh",
"h  1111  h",
"g 1    1 g",
"f 1    1 f",
"e     1  e",
"d    1   d",
"c   1    c",
"b  1     b",
"a 111111 a",
"aaaaaaaaaa"};
