/* XPM */
static char *dummy[]={
"10 10 10 1",
"1 c #FFFFFFFE",
"  c #FF000000",
"a c #FF370617",
"b c #FF6A040F",
"c c #FF9D0208",
"d c #FFD00000",
"e c #FFDC2F02",
"f c #FFE85D04",
"g c #FFF48C06",
"h c #FFFAA307",

"hhhhhhhhhh",
"h     1  h",
"g    11  g",
"f   1 1  f",
"e  1  1  e",
"d 111111 d",
"c     1  c",
"b     1  b",
"a     1  a",
"aaaaaaaaaa"};
