/* XPM */
static char *dummy[]={
"10 10 4 1",
"  c #0",
"1 c #FFEFEF2E",
"2 c #FFE1E12D",
"3 c #FFF9F925",
"          ",
"          ",
"    11    ",
"   1331   ",
"  131121  ",
"  131121  ",
"   1221   ",
"    11    ",
"          ",
"          "};
