/* XPM */
static char *dummy[]={
"10 10 3 1",
"1 c #FFFFFFFE",
"2 c #FF000000",
"3 c #FFFF0000",
"3333333333",
"3222222223",
"3222222223",
"3222222223",
"3222112223",
"3222112223",
"3222222223",
"3222222223",
"3222222223",
"3333333333"};
