/* XPM */
static char *ca38b31faad44b12cee42a6cd148c13faQd6qglzdRP5suec[] = {
/* columns rows colors chars-per-pixel */
"64 64 6 1 ",
"  c #00000000",
". c #01000000",
"X c #0154A130",
"o c #0179FF3B",
"O c #01E6B29F",
"+ c #01FEC2AC",
/* pixels */
"                                                                ",
"                                                                ",
"                                                                ",
"                                                                ",
"                                                                ",
"                                                                ",
"                                                                ",
"                                                                ",
"                                                                ",
"                                                                ",
"                                                                ",
"                                                                ",
"                                                                ",
"                                                                ",
"                                                                ",
"                                                                ",
"                                                                ",
"                                                                ",
"                                                                ",
"                                                     XX         ",
"                                         o          XX          ",
"                                         ooo  .....XX           ",
"                                           o.........           ",
"                                           oo.........          ",
"                                           .o.........          ",
"                                          .............         ",
"                                     XXX  ..........ooo         ",
"                                        XX..........o..ooo      ",
"                                          .............  oooo   ",
"                                          ...o.........         ",
"                                           ..o........          ",
"                                           .o.........          ",
"                                            o........           ",
"                                          o   ..... X           ",
"                                          o         X           ",
"                                                   XX           ",
"                                                    X           ",
"                                                                ",
"                                                                ",
"                                                                ",
"                                         O   OO  OO             ",
"                                         O   OO  OO             ",
"                                         OO  OO  OO             ",
"                                     ++  OO  OO  OO             ",
"                                     ++   OO OO  OO             ",
"                                      ++  ++++O+++O             ",
"                                      +++++++++++++     ++      ",
"                                       ++OO+++++++++ +++++      ",
"                                        ++OOO++++OOO+++++       ",
"                                         +++OOOOOO+++++         ",
"                                           +++++++++++          ",
"                                            ++++++++++          ",
"                                             +++++++            ",
"                                              ++++++            ",
"                                              +++++++           ",
"                                               ++++++           ",
"                                               +++++++          ",
"                                               +++++++          ",
"                                               +++++++          ",
"                                                +++++++         ",
"                                                +++++++         ",
"                                                 +++++++        ",
"                                                 ++++++++       ",
"                                                 +++++++++      "
};
