/* XPM */
static char *_c144f8826d34058bed6ec31e90efc15LVB5kdabMSeqfLm5[] = {
/* columns rows colors chars-per-pixel */
"64 64 7 1 ",
"  c None",
". c #01000000",
"X c #0154A130",
"o c #0179FF3B",
"O c #01E6B29F",
"+ c #01F7BBA8",
"@ c #01FEC2AC",
/* pixels */
"                                                                ",
"                                                                ",
"                                                                ",
"                                                                ",
"                                                                ",
"                                                                ",
"                                                                ",
"                                                                ",
"                                                                ",
"                                                                ",
"                                                                ",
"                                                                ",
"                                                                ",
"                                                                ",
"                                                                ",
"                                                                ",
"                                                                ",
"                                                                ",
"                                                                ",
"                                              .....             ",
"                                           o.........X          ",
"                                           o..........          ",
"                                          .ooo.........         ",
"                                         ....o    X.....        ",
"                                       XX....oXXX XX....        ",
"                                        .... oo X  X ....       ",
"                                        .... o     X ....       ",
"                                        .... o    ooo....       ",
"                                        ....        oooooo      ",
"                                        ....   X     ....       ",
"                                         ....oooo   ....        ",
"                                         ....o  XXX.....        ",
"                                          ..oo.........         ",
"                                           ...........          ",
"                                            .........           ",
"                                              .....X            ",
"                                                   XX           ",
"                                                                ",
"                                                                ",
"                                                                ",
"                                         +   ++  ++             ",
"                                         +   O+  ++             ",
"                                         OO  OO  OO             ",
"                                     @@  OO  OO  OO             ",
"                                     @@   OO OO  OO             ",
"                                      @@  @@@@O@@@O             ",
"                                      @@@@@@@@@@@@@     @@      ",
"                                       @@OO@@@@@@@@@ @@@@@      ",
"                                        @@OOO@@@@OOO@@@@@       ",
"                                         @@@OOOOOO@@@@@         ",
"                                           @@@@@@@@@@@          ",
"                                            @@@@@@@@@@          ",
"                                             @@@@@@@            ",
"                                              @@@@@@            ",
"                                              @@@@@@@           ",
"                                               @@@@@@           ",
"                                               @@@@@@@          ",
"                                               @@@@@@@          ",
"                                               @@@@@@@          ",
"                                                @@@@@@@         ",
"                                                @@@@@@@         ",
"                                                 @@@@@@@        ",
"                                                 @@@@@@@@       ",
"                                                 @@@@@@@@@      "
};
