/* XPM */
static char *bbffba9605cd4317de24ca8ab876715ekQOs8nUcFQAspojD[] = {
/* columns rows colors chars-per-pixel */
"64 64 7 1 ",
"  c None",
". c #01000000",
"X c #0154A130",
"o c #0179FF3B",
"O c #01E6B29F",
"+ c #01F7BBA8",
"@ c #01FEC2AC",
/* pixels */
"                                                                ",
"                                                                ",
"                                                                ",
"                                                                ",
"                                                                ",
"                                                                ",
"                                                                ",
"                                                                ",
"                                                                ",
"                                                                ",
"                                                                ",
"                                                                ",
"                                                                ",
"                                                                ",
"                                                                ",
"                                                                ",
"                                             .......            ",
"                                           ...........          ",
"                                         ....       ....        ",
"                                        ...           ...       ",
"                                       ...             ...      ",
"                                       ..               ..      ",
"                                      ..                 ..     ",
"                                      ..                 ..     ",
"                                     ..       XXXXX       ..    ",
"                                     ..      XX   XX      ..    ",
"                                    o..      X     X      ..    ",
"                                ooooo..      X     X      ..    ",
"                                    o..      X     X      ..    ",
"                                     ..      XX   XX      ..    ",
"                                     ..       XXXXX       ..    ",
"                                      ..                 ..     ",
"                                      ..                 ..     ",
"                                       ..               ..      ",
"                                       ...             ...      ",
"                                        ...           ...       ",
"                                         ....       ....        ",
"                                           ...........          ",
"                                             .......            ",
"                                                                ",
"                                         +   +O  OO             ",
"                                         O   OO  OO             ",
"                                         OO  OO  OO             ",
"                                     @@  OO  OO  OO             ",
"                                     @@   OO OO  OO             ",
"                                      @@  @@@@O@@@O             ",
"                                      @@@@@@@@@@@@@     @@      ",
"                                       @@OO@@@@@@@@@ @@@@@      ",
"                                        @@OOO@@@@OOO@@@@@       ",
"                                         @@@OOOOOO@@@@@         ",
"                                           @@@@@@@@@@@          ",
"                                            @@@@@@@@@@          ",
"                                             @@@@@@@            ",
"                                              @@@@@@            ",
"                                              @@@@@@@           ",
"                                               @@@@@@           ",
"                                               @@@@@@@          ",
"                                               @@@@@@@          ",
"                                               @@@@@@@          ",
"                                                @@@@@@@         ",
"                                                @@@@@@@         ",
"                                                 @@@@@@@        ",
"                                                 @@@@@@@@       ",
"                                                 @@@@@@@@@      "
};
