/* XPM */
static char *_4f813a6c5064dd4f258cbf819000eaaibSmOjQHOj3w9tCX[] = {
/* columns rows colors chars-per-pixel */
"64 64 5 1 ",
"  c None",
". c #01000000",
"X c #0154A130",
"o c #01E6B29F",
"O c #01FEC2AC",
/* pixels */
"                                                                ",
"                                                                ",
"                                                                ",
"                                                                ",
"                                                                ",
"                                                                ",
"                                                                ",
"                                                                ",
"                                                                ",
"                                                                ",
"                                                                ",
"                                                                ",
"                                                                ",
"                                                                ",
"                                                                ",
"                                                                ",
"                                                                ",
"                                                                ",
"                                             .......            ",
"                                           ...........          ",
"                                          .. ...     ..         ",
"                                         .. ...       ..        ",
"                                        .. ...     ... ..       ",
"                                        .  ..       ... .       ",
"                                       ..  .  X XXX  .....      ",
"                                       ..    XX   XX  ....      ",
"                                       ..    X         ...      ",
"                                       ..    X     X    ..      ",
"                                       ...         X    ..      ",
"                                       ....  XX   XX    ..      ",
"                                       .....  XXX X  .  ..      ",
"                                        . ...       ..  .       ",
"                                        .. ...     ... ..       ",
"                                         ..       ... ..        ",
"                                          ..     ... ..         ",
"                                           ...........          ",
"                                             .......            ",
"                                                                ",
"                                                                ",
"                                                                ",
"                                         o   oo  oo             ",
"                                         o   oo  oo             ",
"                                         oo  oo  oo             ",
"                                     OO  oo  oo  oo             ",
"                                     OO   oo oo  oo             ",
"                                      OO  OOOOoOOOo             ",
"                                      OOOOOOOOOOOOO     OO      ",
"                                       OOooOOOOOOOOO OOOOO      ",
"                                        OOoooOOOOoooOOOOO       ",
"                                         OOOooooooOOOOO         ",
"                                           OOOOOOOOOOO          ",
"                                            OOOOOOOOOO          ",
"                                             OOOOOOO            ",
"                                              OOOOOO            ",
"                                              OOOOOOO           ",
"                                               OOOOOO           ",
"                                               OOOOOOO          ",
"                                               OOOOOOO          ",
"                                               OOOOOOO          ",
"                                                OOOOOOO         ",
"                                                OOOOOOO         ",
"                                                 OOOOOOO        ",
"                                                 OOOOOOOO       ",
"                                                 OOOOOOOOO      "
};
